<svg width="30" height="17" viewBox="0 0 30 17" fill="none" xmlns="http://www.w3.org/2000/svg">
<path d="M29.8748 8.075C26.8459 3.09188 21.1479 0 15 0C8.85214 0 3.15413 3.09188 0.125184 8.075C0.0426173 8.20905 0 8.35374 0 8.5C0 8.64626 0.0426173 8.79095 0.125184 8.925C3.15413 13.9081 8.85214 17 15 17C21.1479 17 26.8459 13.9081 29.8748 8.925C29.9574 8.79095 30 8.64626 30 8.5C30 8.35374 29.9574 8.20905 29.8748 8.075ZM15 14.875C10.2467 14.875 5.74822 12.4419 3.15413 8.5C5.74822 4.55812 10.2467 2.125 15 2.125C19.7533 2.125 24.2518 4.55812 26.8459 8.5C24.2518 12.4419 19.7533 14.875 15 14.875ZM15 4.25C13.8137 4.25 12.6541 4.49926 11.6677 4.96625C10.6814 5.43325 9.91262 6.09701 9.45865 6.87359C9.00469 7.65018 8.88591 8.50471 9.11734 9.32913C9.34877 10.1536 9.92001 10.9108 10.7588 11.5052C11.5977 12.0996 12.6664 12.5044 13.8299 12.6683C14.9933 12.8323 16.1993 12.7482 17.2953 12.4265C18.3913 12.1048 19.328 11.5601 19.9871 10.8612C20.6461 10.1623 20.9979 9.34057 20.9979 8.5C20.9979 7.37283 20.366 6.29183 19.2412 5.4948C18.1163 4.69777 16.5907 4.25 15 4.25ZM15 10.625C14.4069 10.625 13.827 10.5004 13.3339 10.2669C12.8407 10.0334 12.4563 9.7015 12.2293 9.3132C12.0023 8.92491 11.943 8.49764 12.0587 8.08543C12.1744 7.67322 12.46 7.29458 12.8794 6.9974C13.2988 6.70021 13.8332 6.49782 14.4149 6.41583C14.9967 6.33384 15.5997 6.37592 16.1476 6.53676C16.6956 6.69759 17.164 6.96996 17.4935 7.31941C17.8231 7.66887 17.999 8.07971 17.999 8.5C17.999 9.06358 17.683 9.60409 17.1206 10.0026C16.5582 10.4011 15.7954 10.625 15 10.625Z" fill="#9A9AA9"/>
</svg>
