<svg width="25" height="30" viewBox="0 0 25 30" fill="none" xmlns="http://www.w3.org/2000/svg">
<path d="M6.44178 16.9878C6.27406 16.9248 6.08477 16.8941 5.89386 16.899C5.70295 16.9038 5.51748 16.9441 5.35698 17.0155L3.19314 17.9775C3.01993 18.0545 2.8775 18.1602 2.77888 18.2849C2.68026 18.4096 2.62858 18.5494 2.62858 18.6914C2.62858 18.8334 2.68026 18.9732 2.77888 19.0979C2.8775 19.2226 3.01993 19.3283 3.19314 19.4053L5.35698 20.3673C5.5175 20.4387 5.70297 20.4789 5.89387 20.4838C6.08477 20.4887 6.27405 20.458 6.4418 20.395C6.60955 20.332 6.74956 20.239 6.84711 20.1259C6.94465 20.0127 6.99613 19.8835 6.99612 19.7518V17.631C6.99619 17.4993 6.94473 17.3701 6.84718 17.2569C6.74962 17.1437 6.60957 17.0508 6.44178 16.9878ZM5.72061 19.483L3.94001 18.6914L5.72061 17.8998L5.72061 19.483ZM6.37755 13.3301C6.37755 13.4466 6.44474 13.5584 6.56435 13.6408C6.68395 13.7232 6.84616 13.7695 7.01531 13.7695H17.9847C18.1538 13.7695 18.3161 13.7232 18.4357 13.6408C18.5553 13.5584 18.6224 13.4466 18.6224 13.3301C18.6224 13.2135 18.5553 13.1018 18.4357 13.0193C18.3161 12.9369 18.1538 12.8906 17.9847 12.8906H7.01531C6.84616 12.8906 6.68395 12.9369 6.56435 13.0193C6.44474 13.1018 6.37755 13.2135 6.37755 13.3301ZM15.1726 5.44922H17.1344C17.3035 5.44922 17.4657 5.40292 17.5853 5.32051C17.7049 5.23809 17.7721 5.12632 17.7721 5.00977C17.7721 4.89322 17.7049 4.78144 17.5853 4.69903C17.4657 4.61661 17.3035 4.57031 17.1344 4.57031H15.1726C15.0034 4.57031 14.8412 4.61661 14.7216 4.69903C14.602 4.78144 14.5348 4.89322 14.5348 5.00977C14.5348 5.12632 14.602 5.23809 14.7216 5.32051C14.8412 5.40292 15.0034 5.44922 15.1726 5.44922ZM21.8069 17.9775L19.643 17.0155C19.4825 16.9441 19.297 16.9039 19.1061 16.899C18.9152 16.8942 18.7259 16.9248 18.5582 16.9878C18.3905 17.0508 18.2504 17.1438 18.1529 17.257C18.0554 17.3701 18.0039 17.4993 18.0039 17.631V19.7518C18.0038 19.8835 18.0553 20.0127 18.1528 20.1259C18.2504 20.2391 18.3904 20.3321 18.5581 20.3951C18.7259 20.4581 18.9152 20.4887 19.1061 20.4838C19.297 20.479 19.4825 20.4387 19.643 20.3673L21.8069 19.4053C21.9801 19.3283 22.1225 19.2226 22.2211 19.0979C22.3197 18.9732 22.3714 18.8334 22.3714 18.6914C22.3714 18.5494 22.3197 18.4096 22.2211 18.2849C22.1225 18.1602 21.9801 18.0545 21.8069 17.9775ZM19.2794 19.483V17.8998L21.06 18.6914L19.2794 19.483ZM21.8112 0H3.18878C2.34335 0.000655542 1.53283 0.232363 0.935021 0.644288C0.337216 1.05621 0.000951354 1.61472 0 2.19727V20.3613C0.000951354 20.9439 0.337216 21.5024 0.935021 21.9143C1.53283 22.3262 2.34335 22.5579 3.18878 22.5586H6.92791C7.24295 22.5588 7.55318 22.5053 7.83094 22.4029C8.10871 22.3005 8.34537 22.1523 8.51984 21.9715L9.52381 20.9338V28.9746C9.52426 29.2465 9.68119 29.5071 9.96016 29.6993C10.2391 29.8916 10.6174 29.9997 11.0119 30H13.9881C14.3826 29.9997 14.7609 29.8916 15.0398 29.6993C15.3188 29.5071 15.4757 29.2465 15.4762 28.9746V20.9338L16.4802 21.9715C16.6546 22.1523 16.8913 22.3005 17.1691 22.4029C17.4468 22.5053 17.7571 22.5588 18.0721 22.5586H21.8112C22.6566 22.5579 23.4672 22.3262 24.065 21.9143C24.6628 21.5024 24.999 20.9439 25 20.3613V2.19727C24.999 1.61472 24.6628 1.05621 24.065 0.644288C23.4672 0.232363 22.6566 0.000655542 21.8112 0ZM14.2007 19.4794C14.2007 19.4799 14.2007 19.4805 14.2007 19.481V28.9746C14.2006 29.0134 14.1782 29.0507 14.1383 29.0781C14.0985 29.1056 14.0445 29.121 13.9881 29.1211H11.0119C10.9555 29.121 10.9015 29.1056 10.8617 29.0781C10.8218 29.0507 10.7994 29.0134 10.7993 28.9746V19.481C10.7993 19.4805 10.7993 19.4799 10.7993 19.4794V19.043H14.2007V19.4794ZM23.7245 20.3613C23.7239 20.7109 23.5222 21.046 23.1635 21.2931C22.8048 21.5403 22.3185 21.6793 21.8112 21.6797H18.0721C17.9671 21.6798 17.8637 21.6619 17.7711 21.6278C17.6785 21.5936 17.5996 21.5442 17.5414 21.484L15.4762 19.3494V19.043H16.1139C16.2831 19.043 16.4453 18.9967 16.5649 18.9143C16.6845 18.8318 16.7517 18.7201 16.7517 18.6035C16.7517 18.487 16.6845 18.3752 16.5649 18.2928C16.4453 18.2104 16.2831 18.1641 16.1139 18.1641H8.88605C8.71691 18.1641 8.5547 18.2104 8.43509 18.2928C8.31549 18.3752 8.2483 18.487 8.2483 18.6035C8.2483 18.7201 8.31549 18.8318 8.43509 18.9143C8.5547 18.9967 8.71691 19.043 8.88605 19.043H9.52381V19.3494L7.45858 21.484C7.40042 21.5442 7.32152 21.5936 7.22893 21.6278C7.13634 21.6619 7.03292 21.6798 6.92791 21.6797H3.18878C2.68152 21.6793 2.1952 21.5403 1.83652 21.2931C1.47784 21.046 1.27608 20.7109 1.27551 20.3613V2.19727C1.27608 1.84774 1.47784 1.51263 1.83652 1.26548C2.1952 1.01832 2.68152 0.879298 3.18878 0.878906H21.8112C22.3185 0.879298 22.8048 1.01832 23.1635 1.26548C23.5222 1.51263 23.7239 1.84774 23.7245 2.19727V20.3613ZM15.1726 7.20703H17.1344C17.3035 7.20703 17.4657 7.16073 17.5853 7.07832C17.7049 6.9959 17.7721 6.88413 17.7721 6.76758C17.7721 6.65103 17.7049 6.53925 17.5853 6.45684C17.4657 6.37442 17.3035 6.32812 17.1344 6.32812H15.1726C15.0034 6.32812 14.8412 6.37442 14.7216 6.45684C14.602 6.53925 14.5348 6.65103 14.5348 6.76758C14.5348 6.88413 14.602 6.9959 14.7216 7.07832C14.8412 7.16073 15.0034 7.20703 15.1726 7.20703ZM21.5986 14.7949V3.07617C21.5983 2.88199 21.4862 2.69582 21.287 2.55851C21.0877 2.4212 20.8175 2.34397 20.5357 2.34375H4.46429C4.18248 2.34397 3.9123 2.4212 3.71303 2.55851C3.51377 2.69582 3.40168 2.88199 3.40136 3.07617V14.7949C3.40168 14.9891 3.51377 15.1753 3.71303 15.3126C3.9123 15.4499 4.18248 15.5271 4.46429 15.5273H20.5357C20.8175 15.5271 21.0877 15.4499 21.287 15.3126C21.4862 15.1753 21.5983 14.9891 21.5986 14.7949ZM20.3231 14.6484H4.67687V3.22266H20.3231V14.6484ZM9.94898 11.543C10.9522 11.5422 11.914 11.2672 12.6234 10.7784C13.3328 10.2896 13.7319 9.62684 13.733 8.93555C13.733 7.62277 10.7845 5.02793 10.4483 4.73637C10.3886 4.68458 10.3127 4.64275 10.2262 4.614C10.1397 4.58525 10.045 4.57031 9.94898 4.57031C9.85298 4.57031 9.75822 4.58525 9.67176 4.614C9.5853 4.64275 9.50938 4.68458 9.44965 4.73637C9.11346 5.02793 6.16497 7.62277 6.16497 8.93555C6.16609 9.62684 6.56513 10.2896 7.27452 10.7784C7.98392 11.2672 8.94574 11.5422 9.94898 11.543ZM9.9491 5.73206C11.0749 6.77733 12.4575 8.27714 12.4575 8.93555C12.4575 9.39398 12.1932 9.83363 11.7228 10.1578C11.2523 10.482 10.6143 10.6641 9.94898 10.6641C9.28368 10.6641 8.64564 10.482 8.1752 10.1578C7.70476 9.83363 7.44048 9.39398 7.44048 8.93555C7.44048 8.27791 8.82319 6.77776 9.9491 5.73206Z" fill="#9A9AA9"/>
</svg>
