<svg width="26" height="24" viewBox="0 0 26 24" fill="none" xmlns="http://www.w3.org/2000/svg">
<g clip-path="url(#clip0_185_3627)">
<path d="M25.0576 18.0602H18.8216C18.3463 18.0602 17.9441 17.734 17.8872 17.299C17.7735 16.4627 17.4119 15.6752 16.8391 15.019C16.5466 14.6815 16.5629 14.1977 16.8838 13.8827C17.8751 12.9002 19.2807 12.334 20.7391 12.334C23.6438 12.334 26.0041 14.5127 26.0041 17.194C26.0001 17.6702 25.5776 18.0602 25.0576 18.0602ZM19.6016 16.3202H23.981C23.5707 15.0227 22.2707 14.0702 20.7351 14.0702C20.0404 14.0702 19.3822 14.2577 18.8257 14.614C19.1751 15.1427 19.4351 15.7165 19.6016 16.3202Z" fill="#959595"/>
<path d="M20.735 12.8699C19.4797 12.8699 18.3666 12.0936 18.0294 10.9836C17.9603 10.7586 17.9197 10.5186 17.9197 10.2711C17.9197 8.83861 19.1831 7.67236 20.735 7.67236C22.2869 7.67236 23.5503 8.83861 23.5503 10.2711C23.5503 10.5149 23.5137 10.7586 23.4406 10.9874C23.1034 12.0936 21.9862 12.8699 20.735 12.8699ZM20.735 9.41236C20.2231 9.41236 19.8047 9.79861 19.8047 10.2711C19.8047 10.3536 19.8169 10.4286 19.8372 10.4999C19.9509 10.8749 20.3206 11.1299 20.735 11.1299C21.1494 11.1299 21.5191 10.8749 21.6287 10.5074C21.6531 10.4286 21.6653 10.3499 21.6653 10.2711C21.6653 9.79861 21.2469 9.41236 20.735 9.41236ZM7.1825 18.0599H0.9425C0.4225 18.0599 0 17.6699 0 17.1899C0 14.5086 2.36437 12.3299 5.26906 12.3299C6.7275 12.3299 8.12906 12.8961 9.12437 13.8824C9.44531 14.2011 9.46156 14.6849 9.165 15.0224C8.58812 15.6786 8.22656 16.4661 8.11687 17.2986C8.06 17.7299 7.65781 18.0599 7.1825 18.0599ZM2.01906 16.3199H6.4025C6.565 15.7199 6.82906 15.1424 7.17844 14.6136C6.62187 14.2611 5.96375 14.0699 5.27312 14.0699C3.72937 14.0699 2.42531 15.0186 2.01906 16.3199Z" fill="#959595"/>
<path d="M5.26453 12.8699C4.00922 12.8699 2.89609 12.0936 2.55891 10.9836C2.48984 10.7586 2.44922 10.5186 2.44922 10.2711C2.44922 8.83861 3.71266 7.67236 5.26453 7.67236C6.81641 7.67236 8.07984 8.83861 8.07984 10.2711C8.07984 10.5149 8.04328 10.7586 7.97016 10.9874C7.63297 12.0936 6.51984 12.8699 5.26453 12.8699ZM5.26453 9.41236C4.75266 9.41236 4.33422 9.79861 4.33422 10.2711C4.33422 10.3536 4.34641 10.4286 4.36672 10.4999C4.48047 10.8749 4.85016 11.1299 5.26453 11.1299C5.67891 11.1299 6.04859 10.8749 6.15828 10.5074C6.18266 10.4286 6.19484 10.3499 6.19484 10.2711C6.19891 9.79861 5.78047 9.41236 5.26453 9.41236Z" fill="#959595"/>
<path d="M18.8705 18.7351H7.13391C6.61391 18.7351 6.19141 18.3451 6.19141 17.8651C6.19141 17.5913 6.21172 17.3251 6.24828 17.0701C6.39859 15.9226 6.90234 14.8313 7.69859 13.9238C8.99859 12.4351 10.9283 11.5801 13.0002 11.5801C15.068 11.5801 17.0017 12.4351 18.3017 13.9201C19.098 14.8276 19.5977 15.9226 19.752 17.0776C19.7886 17.3213 19.8048 17.5876 19.8048 17.8613C19.8089 18.3451 19.3905 18.7351 18.8705 18.7351ZM8.16578 16.9951H17.8345C17.6802 16.2676 17.343 15.5888 16.8392 15.0151C15.8967 13.9388 14.4992 13.3201 13.0042 13.3201C11.5052 13.3201 10.1077 13.9388 9.16922 15.0151C8.65734 15.5963 8.31609 16.2751 8.16578 16.9951Z" fill="#959595"/>
<path d="M12.9993 11.6962C11.4474 11.6962 10.0702 10.7362 9.64773 9.35998C9.55836 9.08248 9.51367 8.78248 9.51367 8.47873C9.51367 6.70498 11.0777 5.26123 12.9993 5.26123C14.9209 5.26123 16.4849 6.70498 16.4849 8.47873C16.4849 8.78248 16.4402 9.08248 16.3468 9.36748C15.9284 10.7362 14.5512 11.6962 12.9993 11.6962ZM12.9993 7.00498C12.1177 7.00498 11.3987 7.66873 11.3987 8.48248C11.3987 8.62123 11.419 8.75623 11.4596 8.88373C11.6546 9.52123 12.2884 9.95998 12.9993 9.95998C13.7102 9.95998 14.344 9.52123 14.5349 8.89123C14.5755 8.75623 14.5959 8.62123 14.5959 8.48248C14.5999 7.66498 13.8809 7.00498 12.9993 7.00498Z" fill="#959595"/>
</g>
<defs>
<clipPath id="clip0_185_3627">
<rect width="26" height="24" fill="white"/>
</clipPath>
</defs>
</svg>
