<svg width="32" height="28" viewBox="0 0 32 28" fill="none" xmlns="http://www.w3.org/2000/svg">
<path d="M3.02565 27.8503C3.29965 27.9443 3.58565 27.9923 3.87665 27.9923C5.25565 27.9923 6.35265 26.9783 6.87165 26.1103C7.07365 25.7723 7.23965 25.4133 7.40365 25.0543C7.65565 24.5043 7.87365 24.0283 8.22465 23.6883C8.64465 23.2823 9.30565 23.0223 10.0056 22.7473C10.8556 22.4143 11.7336 22.0693 12.4406 21.3903C13.7106 20.1703 13.8256 18.3693 13.8876 17.4013C14.0136 15.4343 14.0216 13.4513 13.9256 11.4763C13.9686 11.4663 14.0116 11.4583 14.0556 11.4473C14.6963 11.334 15.3451 11.2731 15.9956 11.2653C16.6465 11.2708 17.2957 11.3304 17.9366 11.4433C17.9796 11.4553 18.0226 11.4623 18.0656 11.4723C17.9673 13.4478 17.98 15.4272 18.1036 17.4013C18.1666 18.3693 18.2826 20.1703 19.5506 21.3903C20.2576 22.0693 21.1356 22.4143 21.9856 22.7473C22.6856 23.0223 23.3466 23.2823 23.7666 23.6883C24.1186 24.0283 24.3356 24.5043 24.5876 25.0543C24.7516 25.4123 24.9176 25.7713 25.1196 26.1103C25.6396 26.9783 26.7356 27.9923 28.1146 27.9923C28.4056 27.9923 28.6916 27.9443 28.9646 27.8503C30.1276 27.4513 30.6486 26.3763 30.9396 25.6013C33.4146 18.9853 31.4276 11.1863 25.9977 6.19531C25.4227 5.66731 24.7156 5.07831 23.8226 4.70531C22.7986 4.27931 21.6596 4.23331 20.7506 4.59131C18.5886 5.44331 18.3336 8.01731 18.2506 8.86331C18.2276 9.09931 18.2157 9.33631 18.1957 9.57331C17.8827 9.49131 17.5627 9.40231 17.2267 9.36831C17.1487 9.35431 17.0676 9.35131 16.9886 9.34231L16.9826 8.72931C16.9722 7.60148 16.9406 6.47394 16.8876 5.34731C16.842 4.21808 16.7653 3.09032 16.6576 1.96531C16.5806 1.04331 16.4956 0.428308 16.4956 0.428308C16.4771 0.309005 16.4165 0.200262 16.3248 0.121716C16.2331 0.0431707 16.1164 0 15.9956 0C15.8749 0 15.7582 0.0431707 15.6665 0.121716C15.5748 0.200262 15.5142 0.309005 15.4956 0.428308C15.4956 0.428308 15.4106 1.04331 15.3346 1.96531C15.227 3.09032 15.1503 4.21808 15.1046 5.34731C15.0421 6.67742 15.0084 8.00873 15.0036 9.34031C14.9246 9.34931 14.8436 9.35331 14.7656 9.36631C14.4296 9.39731 14.1096 9.48631 13.7966 9.56831C13.7766 9.33331 13.7646 9.09731 13.7416 8.86231C13.6586 8.01631 13.4036 5.44231 11.2416 4.58931C10.3316 4.23131 9.19365 4.27631 8.16965 4.70431C7.27665 5.07631 6.56965 5.66531 5.99465 6.19331C0.563649 11.1843 -1.42235 18.9833 1.05265 25.6003C1.34365 26.3763 1.86365 27.4513 3.02565 27.8503ZM21.4816 6.45131C21.6576 6.38231 21.8586 6.34731 22.0806 6.34731C22.3956 6.34731 22.7316 6.41731 23.0526 6.55131C23.6586 6.80431 24.1977 7.25831 24.6437 7.66731C29.4816 12.1133 31.2586 19.0383 29.0666 24.8983C28.8286 25.5353 28.5966 25.8613 28.3156 25.9583C27.8676 26.1163 27.1986 25.6873 26.8366 25.0823C26.6716 24.8073 26.5396 24.5143 26.4056 24.2223C26.1126 23.5803 25.7796 22.8533 25.1566 22.2503C24.4486 21.5653 23.5676 21.2203 22.7156 20.8853C22.0176 20.6113 21.3586 20.3523 20.9376 19.9473C20.3466 19.3803 20.1786 18.5033 20.0996 17.2723C19.9928 15.543 19.9744 13.8094 20.0446 12.0783C20.3036 12.1823 20.5186 12.2773 20.7246 12.3903L21.1896 12.6283C21.1996 12.6333 21.2106 12.6293 21.2206 12.6343C21.2726 12.7793 21.3306 12.9193 21.3876 13.0563C21.5176 13.3673 21.6286 13.6363 21.6586 13.9443C21.7024 14.3729 21.6409 14.8058 21.4796 15.2053C21.4354 15.3268 21.4399 15.4606 21.4923 15.5788C21.5446 15.697 21.6407 15.7904 21.7603 15.8393C21.88 15.8882 22.0139 15.8888 22.1341 15.8411C22.2542 15.7934 22.3512 15.701 22.4046 15.5833C22.6268 15.033 22.7123 14.4369 22.6537 13.8463C22.6212 13.5558 22.5499 13.2709 22.4416 12.9993C22.6206 12.9893 22.7966 12.9633 22.9706 12.9203C23.8906 12.6963 24.6546 12.0433 24.9636 11.2153C24.9866 11.1537 24.9973 11.0882 24.9949 11.0225C24.9926 10.9568 24.9773 10.8922 24.95 10.8324C24.9227 10.7726 24.8839 10.7188 24.8358 10.674C24.7877 10.6292 24.7312 10.5943 24.6696 10.5713C24.6081 10.5483 24.5425 10.5377 24.4769 10.54C24.4112 10.5424 24.3466 10.5576 24.2868 10.5849C24.227 10.6122 24.1731 10.651 24.1283 10.6992C24.0835 10.7473 24.0486 10.8037 24.0257 10.8653C23.8347 11.3793 23.3277 11.8033 22.7337 11.9483C22.5837 11.9853 22.4276 12.0033 22.2726 12.0033C22.2041 12.0001 22.1359 11.9917 22.0686 11.9783C22.0106 11.9683 21.9366 11.9683 21.8716 11.9603C21.8516 11.9183 21.8346 11.8753 21.8016 11.8383L21.4576 11.4453C21.3177 11.2856 21.1619 11.1406 20.9926 11.0123C20.7783 10.8233 20.5473 10.654 20.3026 10.5063C20.2496 10.4703 20.1896 10.4373 20.1336 10.4023C20.1656 9.95331 20.1946 9.50431 20.2386 9.05831C20.3886 7.55531 20.7826 6.72731 21.4816 6.45131ZM7.34865 7.66731C7.79465 7.25731 8.33265 6.80431 8.93965 6.55131C9.25965 6.41831 9.59565 6.34731 9.91065 6.34731C10.1326 6.34731 10.3336 6.38231 10.5096 6.45131C11.2086 6.72731 11.6036 7.55531 11.7516 9.05931C11.7956 9.50431 11.8246 9.95131 11.8566 10.3983C11.8006 10.4333 11.7386 10.4663 11.6856 10.5033C11.4454 10.6476 11.2194 10.8143 11.0106 11.0013C10.8405 11.1325 10.6829 11.2792 10.5396 11.4393C10.2966 11.7013 10.1696 11.8553 10.1696 11.8553C10.1446 11.8853 10.1406 11.9263 10.1236 11.9613C10.0576 11.9693 9.98165 11.9693 9.92265 11.9793C9.85865 11.9903 9.79465 12.0033 9.73265 12.0043C9.56565 11.9923 9.41165 11.9873 9.25665 11.9493C8.66265 11.8053 8.15565 11.3803 7.96465 10.8663C7.91824 10.7419 7.82431 10.6411 7.70354 10.5859C7.58277 10.5308 7.44504 10.5259 7.32065 10.5723C7.19626 10.6187 7.09541 10.7126 7.04027 10.8334C6.98514 10.9542 6.98024 11.0919 7.02665 11.2163C7.33665 12.0443 8.09965 12.6973 9.01965 12.9213C9.19265 12.9633 9.37065 12.9903 9.54865 13.0003C9.45165 13.2563 9.36865 13.5293 9.33665 13.8473C9.27801 14.4379 9.36345 15.0339 9.58565 15.5843C9.60868 15.6475 9.64423 15.7055 9.69018 15.7546C9.73613 15.8038 9.79152 15.8431 9.85305 15.8704C9.91457 15.8976 9.98097 15.9122 10.0482 15.9131C10.1155 15.9141 10.1823 15.9015 10.2446 15.876C10.3069 15.8506 10.3634 15.8128 10.4107 15.765C10.4581 15.7172 10.4953 15.6603 10.5201 15.5978C10.545 15.5352 10.5569 15.4683 10.5553 15.4011C10.5537 15.3338 10.5385 15.2676 10.5106 15.2063C10.3495 14.8067 10.2881 14.3739 10.3316 13.9453C10.3616 13.6363 10.4736 13.3673 10.6026 13.0563C10.6596 12.9203 10.7166 12.7803 10.7686 12.6363L10.8196 12.6133C10.8196 12.6133 10.9866 12.5383 11.2576 12.3993C11.4336 12.3093 11.6756 12.2003 11.9456 12.0893C12.015 13.8171 11.9963 15.5474 11.8896 17.2733C11.8106 18.5033 11.6426 19.3803 11.0516 19.9483C10.6306 20.3533 9.97165 20.6123 9.27365 20.8863C8.42065 21.2203 7.54065 21.5663 6.83265 22.2513C6.20965 22.8543 5.87665 23.5813 5.58365 24.2233C5.44965 24.5153 5.31765 24.8073 5.15265 25.0833C4.79165 25.6883 4.12965 26.1173 3.67365 25.9593C3.39365 25.8633 3.16165 25.5363 2.92365 24.9003C0.732649 19.0383 2.51065 12.1133 7.34865 7.66731Z" fill="#9A9AA9"/>
</svg>
