<svg width="24" height="24" viewBox="0 0 24 24" fill="none" xmlns="http://www.w3.org/2000/svg">
<path d="M21.2301 14.37L21.8704 13.9795L21.8652 13.9709L21.8598 13.9625L21.2301 14.37ZM20.4023 13.58L20.7542 12.9176L20.7432 12.9118L20.732 12.9063L20.4023 13.58ZM21.2097 16.42L21.8539 16.804L21.8607 16.7926L21.8671 16.781L21.2097 16.42ZM20.4943 17.62L19.8501 17.236L19.8486 17.2385L20.4943 17.62ZM17.6022 18.36L17.198 18.9918L17.2044 18.9959L17.2109 18.9998L17.6022 18.36ZM14.8122 19.95L14.0626 19.9268L14.0622 19.9384V19.95H14.8122ZM9.18125 19.95H9.93125V19.9423L9.93109 19.9345L9.18125 19.95ZM6.40153 18.36L6.79283 18.9998L6.80506 18.9923L6.817 18.9844L6.40153 18.36ZM3.49917 17.62L2.85255 18L2.85345 18.0015L3.49917 17.62ZM2.79402 16.42L2.14573 16.7971L2.1474 16.8L2.79402 16.42ZM2.77358 14.37L3.41389 14.7605L3.42339 14.7449L3.43212 14.7289L2.77358 14.37ZM3.59115 13.58L3.26154 12.9063L3.24625 12.9138L3.23132 12.922L3.59115 13.58ZM4.23498 12.94L4.86569 13.3458L4.87293 13.3346L4.87975 13.3231L4.23498 12.94ZM3.57071 10.44L3.95049 9.79313L3.93884 9.78657L3.57071 10.44ZM2.81446 7.61L3.46088 7.99035L3.46316 7.98642L2.81446 7.61ZM3.49917 6.43L2.85563 6.0447L2.85047 6.05358L3.49917 6.43ZM6.38109 5.67L6.0109 6.32227L6.01781 6.32619L6.02479 6.32996L6.38109 5.67ZM8.9462 4.98L9.58558 5.37205L9.58979 5.36518L9.59386 5.35821L8.9462 4.98ZM9.18125 4.1L8.43219 4.13926L8.43299 4.15098L9.18125 4.1ZM9.4674 3.04L10.097 3.44752L10.1025 3.43909L10.1077 3.43051L9.4674 3.04ZM11.2763 2V1.25H11.2662L11.2562 1.25027L11.2763 2ZM14.5363 3.04L13.896 3.43051L13.8969 3.43205L14.5363 3.04ZM14.8122 4.1L14.0645 4.04122L14.064 4.04902L14.8122 4.1ZM15.0473 4.98L14.3996 5.35821L14.4037 5.36518L14.4079 5.37205L15.0473 4.98ZM17.6226 5.67L17.9758 6.33165L17.9858 6.32631L17.9956 6.32067L17.6226 5.67ZM20.4943 6.43L21.143 6.05358L21.1407 6.04966L20.4943 6.43ZM21.179 7.61L20.5303 7.98645L20.5356 7.99527L21.179 7.61ZM20.4228 10.44L20.0575 9.78499L20.0502 9.78903L20.0431 9.79323L20.4228 10.44ZM19.7687 12.94L20.4103 12.5515L20.4101 12.5513L19.7687 12.94ZM21.8598 13.9625C21.6183 13.5895 21.2559 13.1841 20.7542 12.9176L20.0505 14.2424C20.2642 14.3559 20.4536 14.5505 20.6005 14.7775L21.8598 13.9625ZM21.8671 16.781C22.3407 15.9184 22.4122 14.8678 21.8704 13.9795L20.5898 14.7605C20.8043 15.1122 20.8144 15.5816 20.5523 16.059L21.8671 16.781ZM21.1385 18.004L21.8539 16.804L20.5655 16.036L19.8501 17.236L21.1385 18.004ZM18.6855 19.41C19.6781 19.41 20.6279 18.8683 21.14 18.0015L19.8486 17.2385C19.6045 17.6517 19.144 17.91 18.6855 17.91V19.41ZM17.2109 18.9998C17.6651 19.2776 18.2011 19.41 18.6855 19.41V17.91C18.4544 17.91 18.1933 17.8424 17.9935 17.7202L17.2109 18.9998ZM16.7029 18.88C16.9414 18.88 17.092 18.924 17.198 18.9918L18.0064 17.7282C17.5809 17.456 17.1183 17.38 16.7029 17.38V18.88ZM15.5619 19.9732C15.58 19.3896 16.0949 18.88 16.7029 18.88V17.38C15.2873 17.38 14.1058 18.5304 14.0626 19.9268L15.5619 19.9732ZM12.6968 22.75C14.2612 22.75 15.5622 21.5389 15.5622 19.95H14.0622C14.0622 20.6611 13.4829 21.25 12.6968 21.25V22.75ZM11.3069 22.75H12.6968V21.25H11.3069V22.75ZM8.43125 19.95C8.43125 21.5412 9.73474 22.75 11.3069 22.75V21.25C10.5082 21.25 9.93125 20.6588 9.93125 19.95H8.43125ZM7.30085 18.88C7.91044 18.88 8.41952 19.3896 8.43141 19.9655L9.93109 19.9345C9.90211 18.5304 8.71474 17.38 7.30085 17.38V18.88ZM6.817 18.9844C6.90414 18.9264 7.04563 18.88 7.30085 18.88V17.38C6.88158 17.38 6.4099 17.4536 5.98606 17.7356L6.817 18.9844ZM5.31825 19.41C5.79052 19.41 6.33715 19.2785 6.79283 18.9998L6.01023 17.7202C5.81185 17.8415 5.54092 17.91 5.31825 17.91V19.41ZM2.85345 18.0015C3.3666 18.87 4.31736 19.41 5.31825 19.41V17.91C4.84753 17.91 4.38799 17.65 4.14489 17.2385L2.85345 18.0015ZM2.1474 16.8L2.85255 18L4.14579 17.24L3.44064 16.04L2.1474 16.8ZM2.13327 13.9795C1.59707 14.8587 1.64402 15.9347 2.14573 16.7971L3.44231 16.0429C3.18777 15.6053 3.19384 15.1213 3.41389 14.7605L2.13327 13.9795ZM3.23132 12.922C2.77279 13.1727 2.3552 13.5705 2.11505 14.0111L3.43212 14.7289C3.51899 14.5695 3.71457 14.3673 3.95098 14.238L3.23132 12.922ZM3.60427 12.5342C3.45091 12.7725 3.35881 12.8587 3.26154 12.9063L3.92076 14.2537C4.39578 14.0213 4.67158 13.6475 4.86569 13.3458L3.60427 12.5342ZM3.19098 11.0868C3.71272 11.3931 3.88202 12.0658 3.59021 12.5569L4.87975 13.3231C5.6099 12.0942 5.16602 10.5069 3.95043 9.79323L3.19098 11.0868ZM2.16805 7.22966C1.37605 8.57569 1.8194 10.3142 3.20257 11.0934L3.93884 9.78657C3.29854 9.42583 3.08784 8.62431 3.46086 7.99034L2.16805 7.22966ZM2.85047 6.05358L2.16576 7.23358L3.46316 7.98642L4.14787 6.80642L2.85047 6.05358ZM6.75128 5.01773C5.37032 4.23398 3.65494 4.70981 2.85569 6.04473L4.14265 6.81527C4.52887 6.17019 5.34794 5.94602 6.0109 6.32227L6.75128 5.01773ZM8.30683 4.58795C7.99215 5.10116 7.27336 5.29939 6.73739 5.01004L6.02479 6.32996C7.26702 7.00061 8.85786 6.55884 9.58558 5.37205L8.30683 4.58795ZM8.43299 4.15098C8.44055 4.26196 8.40881 4.41297 8.29855 4.60179L9.59386 5.35821C9.81062 4.98703 9.96284 4.53804 9.92952 4.04902L8.43299 4.15098ZM8.83778 2.63248C8.56402 3.05544 8.40299 3.58035 8.43228 4.13925L9.93023 4.06075C9.91864 3.83965 9.98244 3.62456 10.097 3.44752L8.83778 2.63248ZM11.2562 1.25027C10.2573 1.27705 9.33841 1.81108 8.82709 2.64949L10.1077 3.43051C10.3526 3.02892 10.8032 2.76295 11.2964 2.74973L11.2562 1.25027ZM12.7172 1.25H11.2763V2.75H12.7172V1.25ZM15.1766 2.64949C14.6722 1.82245 13.7535 1.25 12.7172 1.25V2.75C13.1935 2.75 13.6441 3.01755 13.896 3.43051L15.1766 2.64949ZM15.5599 4.15878C15.6058 3.57518 15.4216 3.04895 15.1757 2.64795L13.8969 3.43205C14.019 3.63105 14.08 3.84482 14.0645 4.04122L15.5599 4.15878ZM15.6949 4.60179C15.5847 4.41297 15.5529 4.26196 15.5605 4.15098L14.064 4.04902C14.0307 4.53804 14.1829 4.98703 14.3996 5.35821L15.6949 4.60179ZM17.2695 5.00835C16.7192 5.30203 15.9999 5.09872 15.6867 4.58795L14.4079 5.37205C15.1371 6.56128 16.7274 6.99797 17.9758 6.33165L17.2695 5.00835ZM21.1407 6.04966C20.3514 4.70817 18.6205 4.23344 17.2496 5.01933L17.9956 6.32067C18.6482 5.94656 19.4722 6.17183 19.8479 6.81034L21.1407 6.04966ZM21.8277 7.23358L21.143 6.05358L19.8456 6.80642L20.5303 7.98642L21.8277 7.23358ZM20.7881 11.095C22.1834 10.3168 22.6305 8.57421 21.8225 7.22473L20.5356 7.99527C20.9131 8.62579 20.7061 9.42322 20.0575 9.78499L20.7881 11.095ZM20.4101 12.5513C20.114 12.0626 20.2808 11.3931 20.8025 11.0868L20.0431 9.79323C18.8275 10.5069 18.3811 12.0974 19.1273 13.3287L20.4101 12.5513ZM20.732 12.9063C20.6367 12.8597 20.5455 12.7747 20.4103 12.5515L19.1272 13.3285C19.319 13.6453 19.5957 14.0203 20.0727 14.2537L20.732 12.9063ZM12.0121 14.08C10.7994 14.08 9.85972 13.1437 9.85972 12.01H8.35972C8.35972 14.0163 10.0158 15.58 12.0121 15.58V14.08ZM14.1338 12.01C14.1338 13.154 13.2143 14.08 12.0121 14.08V15.58C14.0188 15.58 15.6338 14.006 15.6338 12.01H14.1338ZM12.0121 9.93C13.2108 9.93 14.1338 10.8626 14.1338 12.01H15.6338C15.6338 10.0174 14.0223 8.43 12.0121 8.43V9.93ZM9.85972 12.01C9.85972 10.8729 10.8029 9.93 12.0121 9.93V8.43C10.0123 8.43 8.35972 10.0071 8.35972 12.01H9.85972Z" fill="#9A9AA9"/>
</svg>
