<svg width="24" height="22" viewBox="0 0 24 22" fill="none" xmlns="http://www.w3.org/2000/svg">
<path d="M19.7549 2.717C19.6482 2.717 19.5415 2.695 19.4482 2.651C16.8877 1.562 14.6739 1.1 12.02 1.1C9.37947 1.1 6.87228 1.617 4.59182 2.651C4.27175 2.794 3.87167 2.695 3.68497 2.431C3.5116 2.167 3.63162 1.826 3.95169 1.683C6.43219 0.572 9.15275 0 12.02 0C14.8606 0 17.3411 0.517 20.0617 1.672C20.3951 1.815 20.5151 2.145 20.3417 2.409C20.2217 2.607 19.995 2.717 19.7549 2.717ZM0.671016 8.492C0.537655 8.492 0.404295 8.459 0.28427 8.393C-0.0224594 8.217 -0.0891399 7.876 0.124237 7.623C1.44451 6.083 3.12485 4.873 5.12526 4.026C9.31278 2.244 14.6739 2.233 18.8747 4.015C20.8752 4.862 22.5555 6.061 23.8758 7.59C24.0891 7.832 24.0225 8.184 23.7157 8.36C23.409 8.536 22.9956 8.481 22.7822 8.228C21.582 6.842 20.0617 5.753 18.2613 4.994C14.4338 3.377 9.5395 3.377 5.72538 5.005C3.91168 5.775 2.39137 6.875 1.19112 8.261C1.08443 8.415 0.884393 8.492 0.671016 8.492ZM9.00605 21.769C8.83269 21.769 8.65932 21.714 8.53929 21.604C7.37906 20.647 6.75226 20.031 5.85874 18.7C4.93856 17.347 4.45846 15.697 4.45846 13.926C4.45846 10.659 7.84582 7.997 12.0067 7.997C16.1675 7.997 19.5549 10.659 19.5549 13.926C19.5549 14.234 19.2615 14.476 18.8881 14.476C18.5147 14.476 18.2213 14.234 18.2213 13.926C18.2213 11.264 15.434 9.097 12.0067 9.097C8.5793 9.097 5.79206 11.264 5.79206 13.926C5.79206 15.51 6.21882 16.973 7.03232 18.161C7.88583 19.426 8.47261 19.965 9.49949 20.823C9.75287 21.043 9.75287 21.384 9.49949 21.604C9.35279 21.714 9.17942 21.769 9.00605 21.769ZM18.568 19.734C16.981 19.734 15.5807 19.404 14.4338 18.755C12.4468 17.644 11.2598 15.84 11.2598 13.926C11.2598 13.618 11.5532 13.376 11.9267 13.376C12.3001 13.376 12.5935 13.618 12.5935 13.926C12.5935 15.477 13.5537 16.94 15.1807 17.842C16.1275 18.37 17.2344 18.623 18.568 18.623C18.8881 18.623 19.4215 18.59 19.955 18.513C20.315 18.458 20.6618 18.656 20.7285 18.964C20.7951 19.261 20.5551 19.547 20.1817 19.602C19.4215 19.723 18.7547 19.734 18.568 19.734ZM15.8875 22C15.8341 22 15.7674 21.989 15.7141 21.978C13.5937 21.494 12.2067 20.845 10.7531 19.668C8.88603 18.139 7.85915 16.104 7.85915 13.926C7.85915 12.144 9.69953 10.692 11.9667 10.692C14.2338 10.692 16.0742 12.144 16.0742 13.926C16.0742 15.103 17.3144 16.06 18.8481 16.06C20.3817 16.06 21.622 15.103 21.622 13.926C21.622 9.779 17.2878 6.413 11.9533 6.413C8.16588 6.413 4.69851 8.151 3.13819 10.846C2.61808 11.737 2.35136 12.782 2.35136 13.926C2.35136 14.784 2.44471 16.137 3.24488 17.897C3.37824 18.183 3.20487 18.502 2.85813 18.601C2.51139 18.711 2.12465 18.557 2.00462 18.282C1.35115 16.841 1.03109 15.411 1.03109 13.926C1.03109 12.606 1.33782 11.407 1.93794 10.362C3.71164 7.293 7.64578 5.302 11.9533 5.302C18.0212 5.302 22.9556 9.163 22.9556 13.915C22.9556 15.697 21.1152 17.149 18.8481 17.149C16.5809 17.149 14.7406 15.697 14.7406 13.915C14.7406 12.738 13.5003 11.781 11.9667 11.781C10.433 11.781 9.19276 12.738 9.19276 13.915C9.19276 15.796 10.0729 17.556 11.6866 18.876C12.9535 19.91 14.1671 20.482 16.0475 20.911C16.4076 20.988 16.6076 21.296 16.5143 21.582C16.4476 21.835 16.1675 22 15.8875 22Z" fill="#9A9AA9"/>
</svg>
