<svg width="26" height="26" viewBox="0 0 26 26" fill="none" xmlns="http://www.w3.org/2000/svg">
<path d="M2.63558 21.95C2.24506 22.3406 2.24506 22.9737 2.63558 23.3643C3.02611 23.7548 3.65927 23.7548 4.0498 23.3643L2.63558 21.95ZM13.1471 19.3011L13.0884 20.2994L13.1471 19.3011ZM13.2058 18.3028L7.1157 17.9446L6.99825 19.9411L13.0884 20.2994L13.2058 18.3028ZM8.05525 18.8841L7.69701 12.794L5.70046 12.9114L6.0587 19.0016L8.05525 18.8841ZM6.34987 18.2358L2.63558 21.95L4.0498 23.3643L7.76408 19.65L6.34987 18.2358ZM7.55142 13.1769L16.6784 4.04996L15.2642 2.63575L6.13721 11.7627L7.55142 13.1769ZM21.9499 9.32146L12.8229 18.4484L14.2371 19.8626L23.3641 10.7357L21.9499 9.32146ZM21.9499 4.04996C23.4056 5.50564 23.4056 7.86578 21.9499 9.32146L23.3641 10.7357C25.6008 8.49894 25.6008 4.87248 23.3641 2.63575L21.9499 4.04996ZM23.3641 2.63575C21.1273 0.399014 17.5009 0.399016 15.2642 2.63575L16.6784 4.04996C18.1341 2.59428 20.4942 2.59428 21.9499 4.04996L23.3641 2.63575ZM7.69701 12.794C7.70539 12.9366 7.65241 13.0759 7.55142 13.1769L6.13721 11.7627C5.83424 12.0657 5.6753 12.4837 5.70046 12.9114L7.69701 12.794ZM13.0884 20.2994C13.5161 20.3245 13.9342 20.1656 14.2371 19.8626L12.8229 18.4484C12.9239 18.3474 13.0633 18.2944 13.2058 18.3028L13.0884 20.2994Z" fill="#9A9AA9"/>
<path d="M10.9564 15.0428L17.8587 8.14174" stroke="#9A9AA9" stroke-width="2" stroke-linecap="round"/>
</svg>
