<svg width="24" height="29" viewBox="0 0 24 29" fill="none" xmlns="http://www.w3.org/2000/svg">
<mask id="path-1-inside-1_185_3959" fill="white">
<path d="M15.2043 24.6266L14.707 24.5742L14.3492 27.9719L14.8464 28.0243L15.2043 24.6266Z"/>
</mask>
<path d="M15.2043 24.6266L14.707 24.5742L14.3492 27.9719L14.8464 28.0243L15.2043 24.6266Z" fill="#9A9AA9"/>
<path d="M14.707 24.5742L15.0212 21.5907L12.0377 21.2765L11.7235 24.26L14.707 24.5742ZM15.2043 24.6266L18.1878 24.9408L18.502 21.9573L15.5185 21.6431L15.2043 24.6266ZM14.8464 28.0243L14.5322 31.0078L17.5157 31.322L17.8299 28.3385L14.8464 28.0243ZM14.3492 27.9719L11.3657 27.6577L11.0515 30.6412L14.035 30.9554L14.3492 27.9719ZM14.3928 27.5577L14.8901 27.6101L15.5185 21.6431L15.0212 21.5907L14.3928 27.5577ZM12.2208 24.3124L11.8629 27.7101L17.8299 28.3385L18.1878 24.9408L12.2208 24.3124ZM15.1607 25.0408L14.6634 24.9884L14.035 30.9554L14.5322 31.0078L15.1607 25.0408ZM17.3327 28.2861L17.6905 24.8884L11.7235 24.26L11.3657 27.6577L17.3327 28.2861Z" fill="#9A9AA9" mask="url(#path-1-inside-1_185_3959)"/>
<path d="M14.349 23.9735L14.3485 24.224H14.599H18.3935H18.3935H18.3935H18.3936H18.3936H18.3936H18.3936H18.3936H18.3936H18.3937H18.3937H18.3937H18.3937H18.3937H18.3937H18.3938H18.3938H18.3938H18.3938H18.3938H18.3938H18.3938H18.3939H18.3939H18.3939H18.3939H18.3939H18.3939H18.394H18.394H18.394H18.394H18.394H18.394H18.3941H18.3941H18.3941H18.3941H18.3941H18.3941H18.3942H18.3942H18.3942H18.3942H18.3942H18.3942H18.3943H18.3943H18.3943H18.3943H18.3943H18.3944H18.3944H18.3944H18.3944H18.3944H18.3944H18.3945H18.3945H18.3945H18.3945H18.3945H18.3945H18.3945H18.3946H18.3946H18.3946H18.3946H18.3946H18.3946H18.3947H18.3947H18.3947H18.3947H18.3947H18.3947H18.3948H18.3948H18.3948H18.3948H18.3948H18.3948H18.3949H18.3949H18.3949H18.3949H18.3949H18.3949H18.395H18.395H18.395H18.395H18.395H18.395H18.3951H18.3951H18.3951H18.3951H18.3951H18.3951H18.3951H18.3952H18.3952H18.3952H18.3952H18.3952H18.3952H18.3953H18.3953H18.3953H18.3953H18.3953H18.3953H18.3953H18.3954H18.3954H18.3954H18.3954H18.3954H18.3954H18.3955H18.3955H18.3955C18.9738 24.224 19.5229 23.9736 19.901 23.5372L19.9011 23.5371C20.2861 23.0921 20.4567 22.5011 20.3719 21.9166C20.3102 21.4907 20.2957 21.1344 20.3227 20.8523C20.3501 20.5664 20.4179 20.3794 20.5 20.27L20.6501 20.0699L20.4499 19.9199L20.181 19.7185L20.2772 19.7078L20.341 19.6022L20.546 19.2627L20.6096 19.1573L20.5649 19.0427C20.4211 18.6739 20.3702 18.1282 20.3539 17.727H22.206C22.546 17.727 22.8605 17.5563 23.0452 17.2712C23.2313 16.9845 23.2577 16.627 23.1145 16.3085L23.1147 16.3084L23.1101 16.2992L20.7823 11.6451L20.8691 10.0909L20.8695 10.091V10.077C20.8695 7.25765 19.8652 4.91829 18.0685 3.28572C16.2742 1.65537 13.7122 0.75 10.6295 0.75C5.00377 0.75 0.75 4.9586 0.75 10.5345C0.75 14.6952 2.70468 17.6526 3.97634 19.5766L3.98444 19.5888L3.98453 19.589L4.05379 19.6936C4.05382 19.6937 4.05384 19.6937 4.05387 19.6937C4.1811 19.8868 4.27108 20.275 4.30194 20.854C4.33204 21.4187 4.30445 22.1192 4.23408 22.8965C4.09344 24.4498 3.78439 26.2833 3.4439 27.8953L3.39224 28.1399L3.63678 28.1916L4.12628 28.2951L4.37089 28.3468L4.42259 28.1022C4.60219 27.2526 4.96714 25.4105 5.16804 23.5974C5.26843 22.6914 5.3287 21.7856 5.30276 21.0112C5.27732 20.2518 5.16844 19.5659 4.88915 19.1428L4.88897 19.1425L4.81951 19.0376C3.58063 17.1648 1.75 14.3901 1.75 10.5345C1.75 5.52453 5.5606 1.75001 10.6295 1.7505H10.6295C14.0724 1.7505 16.3729 2.83853 17.8147 4.4018C19.2589 5.96781 19.8683 8.03987 19.87 10.0565L19.7764 11.7225L19.7746 11.7552L19.7812 11.7872L19.8072 11.9127L19.8138 11.9447L19.8284 11.9739L22.2067 16.7275C22.2067 16.7275 22.2067 16.7275 22.2067 16.7275C22.2066 16.7275 22.2066 16.7275 22.2065 16.7275H19.8495H19.7485L19.6758 16.7977L19.4258 17.0392L19.3529 17.1096L19.3496 17.2109C19.3483 17.2515 19.3233 18.0477 19.4645 18.7918L17.7939 18.9775L17.5453 19.0052L17.573 19.2537L17.6285 19.7507L17.6563 19.9991L17.9046 19.9715L19.6242 19.7804C19.2994 20.305 19.2419 21.092 19.3821 22.0598L19.3821 22.0601C19.4257 22.3589 19.3385 22.6578 19.145 22.8818C18.9531 23.1034 18.689 23.224 18.3955 23.224H18.3955H18.3955H18.3955H18.3954H18.3954H18.3954H18.3954H18.3954H18.3954H18.3953H18.3953H18.3953H18.3953H18.3953H18.3953H18.3952H18.3952H18.3952H18.3952H18.3952H18.3952H18.3951H18.3951H18.3951H18.3951H18.3951H18.3951H18.395H18.395H18.395H18.395H18.395H18.395H18.3949H18.3949H18.3949H18.3949H18.3949H18.3949H18.3949H18.3948H18.3948H18.3948H18.3948H18.3948H18.3948H18.3947H18.3947H18.3947H18.3947H18.3947H18.3947H18.3947H18.3946H18.3946H18.3946H18.3946H18.3946H18.3946H18.3945H18.3945H18.3945H14.6H14.3505L14.35 23.4735L14.349 23.9735ZM22.2181 16.7335L22.435 16.625L22.2064 16.7263C22.2066 16.7267 22.2067 16.727 22.2068 16.7273L22.2181 16.7335Z" fill="#9A9AA9" stroke="#9A9AA9" stroke-width="0.5"/>
<mask id="path-4-inside-2_185_3959" fill="white">
<path d="M19.1 12.4744H16.85V11.9744H18.1195L16.2305 10.9439L16.4695 10.5049L19.2195 12.0049L19.1 12.4744Z"/>
</mask>
<path d="M19.1 12.4744H16.85V11.9744H18.1195L16.2305 10.9439L16.4695 10.5049L19.2195 12.0049L19.1 12.4744Z" fill="#9A9AA9"/>
<path d="M19.1 12.4744V15.4744H21.432L22.0073 13.2144L19.1 12.4744ZM16.85 12.4744H13.85V15.4744H16.85V12.4744ZM16.85 11.9744V8.97438H13.85V11.9744H16.85ZM18.1195 11.9744V14.9744L19.5562 9.34078L18.1195 11.9744ZM16.2305 10.9439L13.5956 9.50943L12.1624 12.142L14.7938 13.5775L16.2305 10.9439ZM16.4695 10.5049L17.906 7.8712L15.2702 6.43349L13.8346 9.07043L16.4695 10.5049ZM19.2195 12.0049L22.1268 12.7449L22.7015 10.4869L20.656 9.3712L19.2195 12.0049ZM19.1 9.47438H16.85V15.4744H19.1V9.47438ZM19.85 12.4744V11.9744H13.85V12.4744H19.85ZM16.85 14.9744H18.1195V8.97438H16.85V14.9744ZM19.5562 9.34078L17.6672 8.31028L14.7938 13.5775L16.6828 14.608L19.5562 9.34078ZM18.8653 12.3783L19.1043 11.9393L13.8346 9.07043L13.5956 9.50943L18.8653 12.3783ZM15.0329 13.1386L17.7829 14.6386L20.656 9.3712L17.906 7.8712L15.0329 13.1386ZM16.3122 11.2649L16.1927 11.7344L22.0073 13.2144L22.1268 12.7449L16.3122 11.2649Z" fill="#9A9AA9" mask="url(#path-4-inside-2_185_3959)"/>
<mask id="path-6-inside-3_185_3959" fill="white">
<path d="M10.5 25.724C10.33 25.724 10.162 25.714 9.997 25.6945L10.0555 25.198C10.3505 25.2325 10.662 25.233 10.959 25.1965L11.0195 25.693C10.849 25.7135 10.6755 25.724 10.5 25.724ZM9.0025 25.4525C8.6825 25.332 8.377 25.1725 8.095 24.9785L8.378 24.5665C8.6275 24.738 8.8965 24.879 9.1785 24.985L9.0025 25.4525ZM12.014 25.446L11.8355 24.979C12.117 24.871 12.386 24.7295 12.6335 24.5575L12.9185 24.9685C12.6375 25.1635 12.3335 25.3245 12.014 25.446ZM7.327 24.3015C7.0995 24.0465 6.9025 23.764 6.7425 23.4625L7.184 23.2275C7.3255 23.494 7.4995 23.7435 7.7 23.969L7.327 24.3015ZM13.6835 24.29L13.3095 23.958C13.5095 23.7325 13.682 23.4825 13.8225 23.215L14.265 23.4475C14.106 23.751 13.9105 24.0345 13.6835 24.29ZM6.376 22.5055C6.294 22.1755 6.2515 21.834 6.25 21.4905L6.75 21.488C6.7515 21.7915 6.7885 22.0935 6.8615 22.3845L6.376 22.5055ZM14.6275 22.49L14.142 22.371C14.214 22.0785 14.25 21.777 14.25 21.474L14.75 21.443V21.474C14.75 21.817 14.709 22.159 14.6275 22.49ZM6.8545 20.5915L6.368 20.474C6.4485 20.1415 6.569 19.8185 6.7275 19.5155L7.171 19.746C7.0315 20.0135 6.9255 20.298 6.8545 20.5915ZM14.136 20.5495C14.0615 20.2565 13.9515 19.9735 13.8095 19.7075L14.25 19.4715C14.411 19.7725 14.536 20.0935 14.6205 20.4255L14.136 20.5495ZM7.6815 19.0005L7.3055 18.6705C7.5305 18.4145 7.787 18.185 8.067 17.9885L8.354 18.398C8.1065 18.5715 7.8805 18.7745 7.6815 19.0005ZM13.29 18.9685C13.089 18.7445 12.86 18.544 12.61 18.374L12.892 17.961C13.1745 18.154 13.434 18.3805 13.662 18.635L13.29 18.9685ZM9.151 17.974L8.9715 17.5075C9.2905 17.384 9.6245 17.3 9.9635 17.2575L10.026 17.7535C9.7265 17.791 9.432 17.865 9.151 17.974ZM11.808 17.9585C11.525 17.8535 11.2295 17.7825 10.9295 17.7485L10.986 17.252C11.326 17.2905 11.661 17.371 11.9815 17.49L11.808 17.9585ZM10.5 23.724C9.2595 23.724 8.25 22.7145 8.25 21.474C8.25 20.2335 9.2595 19.224 10.5 19.224C11.7405 19.224 12.75 20.2335 12.75 21.474C12.75 22.7145 11.7405 23.724 10.5 23.724ZM10.5 19.724C9.535 19.724 8.75 20.509 8.75 21.474C8.75 22.439 9.535 23.224 10.5 23.224C11.465 23.224 12.25 22.439 12.25 21.474C12.25 20.509 11.465 19.724 10.5 19.724Z"/>
</mask>
<path d="M10.5 25.724C10.33 25.724 10.162 25.714 9.997 25.6945L10.0555 25.198C10.3505 25.2325 10.662 25.233 10.959 25.1965L11.0195 25.693C10.849 25.7135 10.6755 25.724 10.5 25.724ZM9.0025 25.4525C8.6825 25.332 8.377 25.1725 8.095 24.9785L8.378 24.5665C8.6275 24.738 8.8965 24.879 9.1785 24.985L9.0025 25.4525ZM12.014 25.446L11.8355 24.979C12.117 24.871 12.386 24.7295 12.6335 24.5575L12.9185 24.9685C12.6375 25.1635 12.3335 25.3245 12.014 25.446ZM7.327 24.3015C7.0995 24.0465 6.9025 23.764 6.7425 23.4625L7.184 23.2275C7.3255 23.494 7.4995 23.7435 7.7 23.969L7.327 24.3015ZM13.6835 24.29L13.3095 23.958C13.5095 23.7325 13.682 23.4825 13.8225 23.215L14.265 23.4475C14.106 23.751 13.9105 24.0345 13.6835 24.29ZM6.376 22.5055C6.294 22.1755 6.2515 21.834 6.25 21.4905L6.75 21.488C6.7515 21.7915 6.7885 22.0935 6.8615 22.3845L6.376 22.5055ZM14.6275 22.49L14.142 22.371C14.214 22.0785 14.25 21.777 14.25 21.474L14.75 21.443V21.474C14.75 21.817 14.709 22.159 14.6275 22.49ZM6.8545 20.5915L6.368 20.474C6.4485 20.1415 6.569 19.8185 6.7275 19.5155L7.171 19.746C7.0315 20.0135 6.9255 20.298 6.8545 20.5915ZM14.136 20.5495C14.0615 20.2565 13.9515 19.9735 13.8095 19.7075L14.25 19.4715C14.411 19.7725 14.536 20.0935 14.6205 20.4255L14.136 20.5495ZM7.6815 19.0005L7.3055 18.6705C7.5305 18.4145 7.787 18.185 8.067 17.9885L8.354 18.398C8.1065 18.5715 7.8805 18.7745 7.6815 19.0005ZM13.29 18.9685C13.089 18.7445 12.86 18.544 12.61 18.374L12.892 17.961C13.1745 18.154 13.434 18.3805 13.662 18.635L13.29 18.9685ZM9.151 17.974L8.9715 17.5075C9.2905 17.384 9.6245 17.3 9.9635 17.2575L10.026 17.7535C9.7265 17.791 9.432 17.865 9.151 17.974ZM11.808 17.9585C11.525 17.8535 11.2295 17.7825 10.9295 17.7485L10.986 17.252C11.326 17.2905 11.661 17.371 11.9815 17.49L11.808 17.9585ZM10.5 23.724C9.2595 23.724 8.25 22.7145 8.25 21.474C8.25 20.2335 9.2595 19.224 10.5 19.224C11.7405 19.224 12.75 20.2335 12.75 21.474C12.75 22.7145 11.7405 23.724 10.5 23.724ZM10.5 19.724C9.535 19.724 8.75 20.509 8.75 21.474C8.75 22.439 9.535 23.224 10.5 23.224C11.465 23.224 12.25 22.439 12.25 21.474C12.25 20.509 11.465 19.724 10.5 19.724Z" fill="#9A9AA9"/>
<path d="M9.997 25.6945L7.01761 25.3434L6.66669 28.3218L9.6449 28.6737L9.997 25.6945ZM10.0555 25.198L10.404 22.2183L7.42685 21.8701L7.07611 24.8469L10.0555 25.198ZM10.959 25.1965L13.937 24.8336L13.5737 21.8525L10.5931 22.2189L10.959 25.1965ZM11.0195 25.693L11.3776 28.6715L14.3609 28.3128L13.9975 25.3301L11.0195 25.693ZM9.0025 25.4525L7.94528 28.26L10.7531 29.3173L11.8101 26.5094L9.0025 25.4525ZM8.095 24.9785L5.62218 23.2799L3.92481 25.7509L6.39467 27.4501L8.095 24.9785ZM8.378 24.5665L10.0774 22.0942L7.6043 20.3943L5.90518 22.8679L8.378 24.5665ZM9.1785 24.985L11.9861 26.0419L13.0437 23.2329L10.2341 22.1768L9.1785 24.985ZM12.014 25.446L9.21173 26.5171L10.281 29.3146L13.0803 28.25L12.014 25.446ZM11.8355 24.979L10.7609 22.178L7.96346 23.2513L9.03323 26.0501L11.8355 24.979ZM12.6335 24.5575L15.0988 22.848L13.3875 20.3801L10.9215 22.0939L12.6335 24.5575ZM12.9185 24.9685L14.6289 27.4331L17.0927 25.7234L15.3838 23.259L12.9185 24.9685ZM7.327 24.3015L5.08841 26.2986L7.08476 28.5363L9.32325 26.5409L7.327 24.3015ZM6.7425 23.4625L5.33291 20.8142L2.68799 22.2221L4.09253 24.8687L6.7425 23.4625ZM7.184 23.2275L9.83367 21.8206L8.42536 19.1682L5.77441 20.5792L7.184 23.2275ZM7.7 23.969L9.69625 26.2084L11.9328 24.2147L9.94195 21.9756L7.7 23.969ZM13.6835 24.29L11.6919 26.5335L13.9345 28.5243L15.9262 26.2825L13.6835 24.29ZM13.3095 23.958L11.0651 21.9673L9.07533 24.2108L11.3179 26.2015L13.3095 23.958ZM13.8225 23.215L15.2179 20.5592L12.5618 19.1636L11.1666 21.82L13.8225 23.215ZM14.265 23.4475L16.9224 24.8396L18.3129 22.1854L15.6604 20.7917L14.265 23.4475ZM6.376 22.5055L3.46454 23.2289L4.1885 26.1424L7.10149 25.4164L6.376 22.5055ZM6.25 21.4905L6.235 18.4905L3.23694 18.5055L3.25003 21.5036L6.25 21.4905ZM6.75 21.488L9.74996 21.4731L9.73514 18.473L6.735 18.488L6.75 21.488ZM6.8615 22.3845L7.58699 25.2954L10.5024 24.5688L9.77134 21.6545L6.8615 22.3845ZM14.6275 22.49L13.9133 25.4037L16.824 26.1171L17.5405 23.2072L14.6275 22.49ZM14.142 22.371L11.229 21.6539L10.5112 24.5698L13.4278 25.2847L14.142 22.371ZM14.25 21.474L14.0644 18.4797L11.25 18.6542V21.474H14.25ZM14.75 21.443H17.75V18.2512L14.5644 18.4487L14.75 21.443ZM6.8545 20.5915L6.15019 23.5076L9.06527 24.2117L9.77039 21.2968L6.8545 20.5915ZM6.368 20.474L3.45224 19.768L2.74593 22.6854L5.66369 23.3901L6.368 20.474ZM6.7275 19.5155L8.11099 16.8535L5.45609 15.4737L4.06923 18.1249L6.7275 19.5155ZM7.171 19.746L9.83102 21.1331L11.2201 18.4694L8.55449 17.084L7.171 19.746ZM14.136 20.5495L11.2285 21.2887L11.9689 24.2008L14.8798 23.4558L14.136 20.5495ZM13.8095 19.7075L12.3928 17.0631L9.7523 18.4777L11.163 21.1203L13.8095 19.7075ZM14.25 19.4715L16.8954 18.0565L15.4794 15.4094L12.8333 16.8271L14.25 19.4715ZM14.6205 20.4255L15.3643 23.3318L18.2668 22.5889L17.5278 19.6855L14.6205 20.4255ZM7.6815 19.0005L5.70259 21.2552L7.9537 23.2309L9.93305 20.983L7.6815 19.0005ZM7.3055 18.6705L5.05214 16.69L3.07025 18.9449L5.32659 20.9252L7.3055 18.6705ZM8.067 17.9885L10.5237 16.2667L8.80084 13.8084L6.34367 15.5328L8.067 17.9885ZM8.354 18.398L10.0761 20.8545L12.5323 19.1326L10.8107 16.6762L8.354 18.398ZM13.29 18.9685L11.0571 20.972L13.0598 23.2039L15.2926 21.2022L13.29 18.9685ZM12.61 18.374L10.1325 16.6823L8.43753 19.1646L10.9231 20.8547L12.61 18.374ZM12.892 17.961L14.5843 15.4838L12.1066 13.7911L10.4145 16.2693L12.892 17.961ZM13.662 18.635L15.6646 20.8687L17.8976 18.8668L15.8965 16.6332L13.662 18.635ZM9.151 17.974L6.35112 19.0513L7.43139 21.8588L10.2359 20.7709L9.151 17.974ZM8.9715 17.5075L7.88839 14.7098L5.0965 15.7907L6.17162 18.5848L8.9715 17.5075ZM9.9635 17.2575L12.94 16.8824L12.5651 13.9078L9.59032 14.2808L9.9635 17.2575ZM10.026 17.7535L10.3987 20.7302L13.3778 20.3572L13.0025 17.3784L10.026 17.7535ZM11.808 17.9585L10.7644 20.7711L13.5788 21.8153L14.6213 19.0003L11.808 17.9585ZM10.9295 17.7485L7.94874 17.4093L7.60938 20.3914L10.5917 20.7294L10.9295 17.7485ZM10.986 17.252L11.3235 14.271L8.34425 13.9336L8.00524 16.9128L10.986 17.252ZM11.9815 17.49L14.7948 18.5318L15.8357 15.7209L13.0257 14.6776L11.9815 17.49ZM10.5 22.724C10.4476 22.724 10.3972 22.7209 10.3491 22.7152L9.6449 28.6737C9.92685 28.707 10.2124 28.724 10.5 28.724V22.724ZM12.9764 26.0455L13.0349 25.549L7.07611 24.8469L7.01761 25.3434L12.9764 26.0455ZM9.70703 28.1776C10.2309 28.2389 10.7824 28.2407 11.3249 28.1741L10.5931 22.2189C10.5416 22.2252 10.4701 22.226 10.404 22.2183L9.70703 28.1776ZM7.98103 25.5593L8.04153 26.0558L13.9975 25.3301L13.937 24.8336L7.98103 25.5593ZM10.6614 22.7144C10.6098 22.7206 10.5559 22.724 10.5 22.724V28.724C10.7951 28.724 11.0882 28.7063 11.3776 28.6715L10.6614 22.7144ZM10.0597 22.6449C9.96664 22.6099 9.87712 22.5631 9.79533 22.5068L6.39467 27.4501C6.87688 27.7818 7.39836 28.054 7.94528 28.26L10.0597 22.6449ZM10.5678 26.677L10.8508 26.265L5.90518 22.8679L5.62218 23.2799L10.5678 26.677ZM6.67862 27.0387C7.12463 27.3453 7.60935 27.6001 8.12295 27.7931L10.2341 22.1768C10.1836 22.1578 10.1304 22.1306 10.0774 22.0942L6.67862 27.0387ZM6.37087 23.928L6.19487 24.3955L11.8101 26.5094L11.9861 26.0419L6.37087 23.928ZM14.8163 24.3749L14.6378 23.9079L9.03323 26.0501L9.21173 26.5171L14.8163 24.3749ZM12.9101 27.7799C13.4119 27.5874 13.8956 27.3337 14.3455 27.021L10.9215 22.0939C10.8764 22.1252 10.8221 22.1545 10.7609 22.178L12.9101 27.7799ZM10.1682 26.267L10.4532 26.678L15.3838 23.259L15.0988 22.848L10.1682 26.267ZM11.2081 22.5038C11.1238 22.5623 11.0356 22.6084 10.9477 22.6419L13.0803 28.25C13.6314 28.0405 14.1512 27.7646 14.6289 27.4331L11.2081 22.5038ZM9.56559 22.3043C9.49731 22.2277 9.43877 22.1434 9.39247 22.0562L4.09253 24.8687C4.36623 25.3845 4.70169 25.8652 5.08841 26.2986L9.56559 22.3043ZM8.15209 26.1107L8.59359 25.8757L5.77441 20.5792L5.33291 20.8142L8.15209 26.1107ZM4.53433 24.6343C4.78935 25.1146 5.10084 25.5606 5.45805 25.9624L9.94195 21.9756C9.89816 21.9263 9.86165 21.8733 9.83367 21.8206L4.53433 24.6343ZM5.70375 21.7295L5.33075 22.062L9.32325 26.5409L9.69625 26.2084L5.70375 21.7295ZM15.6751 22.0464L15.3011 21.7144L11.3179 26.2015L11.6919 26.5335L15.6751 22.0464ZM15.5539 25.9486C15.9156 25.5407 16.226 25.0905 16.4784 24.6099L11.1666 21.82C11.138 21.8744 11.1034 21.9242 11.0651 21.9673L15.5539 25.9486ZM12.4271 25.8707L12.8696 26.1032L15.6604 20.7917L15.2179 20.5592L12.4271 25.8707ZM11.6076 22.0553C11.561 22.1442 11.5044 22.2258 11.4408 22.2974L15.9262 26.2825C16.3166 25.8431 16.651 25.3577 16.9224 24.8396L11.6076 22.0553ZM9.28746 21.782C9.26358 21.6859 9.25043 21.5829 9.24997 21.4774L3.25003 21.5036C3.25257 22.085 3.32443 22.665 3.46454 23.2289L9.28746 21.782ZM6.265 24.4904L6.765 24.4879L6.735 18.488L6.235 18.4905L6.265 24.4904ZM3.75004 21.5028C3.75269 22.0389 3.81796 22.5814 3.95166 23.1144L9.77134 21.6545C9.75904 21.6055 9.75031 21.544 9.74996 21.4731L3.75004 21.5028ZM6.13601 19.4735L5.65051 19.5945L7.10149 25.4164L7.58699 25.2954L6.13601 19.4735ZM15.3417 19.5762L14.8562 19.4572L13.4278 25.2847L13.9133 25.4037L15.3417 19.5762ZM17.055 23.088C17.1859 22.5566 17.25 22.0141 17.25 21.474H11.25C11.25 21.5398 11.2421 21.6003 11.229 21.6539L17.055 23.088ZM14.4356 24.4682L14.9356 24.4372L14.5644 18.4487L14.0644 18.4797L14.4356 24.4682ZM11.75 21.443V21.474H17.75V21.443H11.75ZM11.75 21.474C11.75 21.5788 11.7374 21.6799 11.7145 21.7727L17.5405 23.2072C17.6806 22.638 17.75 22.0551 17.75 21.474H11.75ZM7.55881 17.6753L7.07231 17.5578L5.66369 23.3901L6.15019 23.5076L7.55881 17.6753ZM9.28376 21.1799C9.30797 21.0799 9.34323 20.9873 9.38577 20.906L4.06923 18.1249C3.79477 18.6496 3.58903 19.203 3.45224 19.768L9.28376 21.1799ZM5.34401 22.1774L5.78751 22.4079L8.55449 17.084L8.11099 16.8535L5.34401 22.1774ZM4.51098 18.3588C4.25655 18.8466 4.06573 19.3606 3.93861 19.8861L9.77039 21.2968C9.78527 21.2353 9.80645 21.1803 9.83102 21.1331L4.51098 18.3588ZM17.0435 19.8102C16.909 19.2812 16.711 18.7722 16.456 18.2947L11.163 21.1203C11.192 21.1747 11.214 21.2317 11.2285 21.2887L17.0435 19.8102ZM15.2262 22.3518L15.6667 22.1158L12.8333 16.8271L12.3928 17.0631L15.2262 22.3518ZM11.6046 20.8864C11.6523 20.9755 11.6889 21.07 11.7132 21.1654L17.5278 19.6855C17.3831 19.1169 17.1697 18.5694 16.8954 18.0565L11.6046 20.8864ZM13.8767 17.5191L13.3922 17.6431L14.8798 23.4558L15.3643 23.3318L13.8767 17.5191ZM9.66041 16.7457L9.28441 16.4157L5.32659 20.9252L5.70259 21.2552L9.66041 16.7457ZM9.55886 20.6509C9.62512 20.5756 9.70332 20.5052 9.79033 20.4441L6.34367 15.5328C5.87069 15.8648 5.43588 16.2534 5.05214 16.69L9.55886 20.6509ZM5.61029 19.7102L5.89729 20.1197L10.8107 16.6762L10.5237 16.2667L5.61029 19.7102ZM6.63195 15.9414C6.18732 16.2531 5.78404 16.6158 5.42995 17.0179L9.93305 20.983C9.97696 20.9331 10.0257 20.8898 10.0761 20.8545L6.63195 15.9414ZM15.5229 16.9649C15.1606 16.5611 14.7484 16.2002 14.2969 15.8932L10.9231 20.8547C10.9716 20.8877 11.0174 20.9278 11.0571 20.972L15.5229 16.9649ZM15.0875 20.0656L15.3695 19.6526L10.4145 16.2693L10.1325 16.6823L15.0875 20.0656ZM11.1997 20.4381C11.2869 20.4976 11.3636 20.5653 11.4275 20.6367L15.8965 16.6332C15.5044 16.1956 15.0621 15.8103 14.5843 15.4838L11.1997 20.4381ZM11.6594 16.4012L11.2874 16.7347L15.2926 21.2022L15.6646 20.8687L11.6594 16.4012ZM11.9509 16.8966L11.7714 16.4301L6.17162 18.5848L6.35112 19.0513L11.9509 16.8966ZM10.0546 20.3051C10.1441 20.2705 10.2396 20.2463 10.3367 20.2342L9.59032 14.2808C9.00943 14.3536 8.43695 14.4974 7.88839 14.7098L10.0546 20.3051ZM6.98704 17.6325L7.04954 18.1285L13.0025 17.3784L12.94 16.8824L6.98704 17.6325ZM9.65328 14.7767C9.11234 14.8444 8.57848 14.9782 8.06606 15.177L10.2359 20.7709C10.2855 20.7517 10.3407 20.7375 10.3987 20.7302L9.65328 14.7767ZM12.8516 15.1458C12.3443 14.9576 11.812 14.8293 11.2673 14.7675L10.5917 20.7294C10.647 20.7356 10.7057 20.7493 10.7644 20.7711L12.8516 15.1458ZM13.9103 18.0877L13.9668 17.5912L8.00524 16.9128L7.94874 17.4093L13.9103 18.0877ZM10.6485 20.2329C10.7436 20.2437 10.8415 20.2668 10.9373 20.3024L13.0257 14.6776C12.4805 14.4751 11.9084 14.3372 11.3235 14.271L10.6485 20.2329ZM9.16822 16.4481L8.99472 16.9166L14.6213 19.0003L14.7948 18.5318L9.16822 16.4481ZM10.5 20.724C10.9164 20.724 11.25 21.0576 11.25 21.474H5.25C5.25 24.3713 7.60265 26.724 10.5 26.724V20.724ZM11.25 21.474C11.25 21.8903 10.9164 22.224 10.5 22.224V16.224C7.60265 16.224 5.25 18.5766 5.25 21.474H11.25ZM10.5 22.224C10.0836 22.224 9.75 21.8903 9.75 21.474H15.75C15.75 18.5766 13.3974 16.224 10.5 16.224V22.224ZM9.75 21.474C9.75 21.0576 10.0836 20.724 10.5 20.724V26.724C13.3974 26.724 15.75 24.3713 15.75 21.474H9.75ZM10.5 16.724C7.87815 16.724 5.75 18.8521 5.75 21.474H11.75C11.75 22.1658 11.1919 22.724 10.5 22.724V16.724ZM5.75 21.474C5.75 24.0958 7.87815 26.224 10.5 26.224V20.224C11.1919 20.224 11.75 20.7821 11.75 21.474H5.75ZM10.5 26.224C13.1219 26.224 15.25 24.0958 15.25 21.474H9.25C9.25 20.7821 9.80815 20.224 10.5 20.224V26.224ZM15.25 21.474C15.25 18.8521 13.1219 16.724 10.5 16.724V22.724C9.80815 22.724 9.25 22.1658 9.25 21.474H15.25Z" fill="#9A9AA9" mask="url(#path-6-inside-3_185_3959)"/>
<mask id="path-8-inside-4_185_3959" fill="white">
<path d="M23.1311 28.0505L20.6431 27.2565L20.4876 27.9985L16.6641 26.6595L16.8291 26.1875L20.1151 27.3385L20.2671 26.612L23.2831 27.574L23.1311 28.0505Z"/>
</mask>
<path d="M23.1311 28.0505L20.6431 27.2565L20.4876 27.9985L16.6641 26.6595L16.8291 26.1875L20.1151 27.3385L20.2671 26.612L23.2831 27.574L23.1311 28.0505Z" fill="#9A9AA9"/>
<path d="M23.1311 28.0505L22.219 30.9085L25.0773 31.8207L25.9892 28.9622L23.1311 28.0505ZM20.6431 27.2565L21.5551 24.3985L18.3886 23.388L17.7068 26.6412L20.6431 27.2565ZM20.4876 27.9985L19.496 30.8299L22.7226 31.9598L23.4238 28.6138L20.4876 27.9985ZM16.6641 26.6595L13.8321 25.6695L12.8427 28.4999L15.6725 29.4909L16.6641 26.6595ZM16.8291 26.1875L17.8208 23.3562L14.9877 22.3638L13.9971 25.1975L16.8291 26.1875ZM20.1151 27.3385L19.1233 30.1698L22.3511 31.3004L23.0515 27.9529L20.1151 27.3385ZM20.2671 26.612L21.1787 23.7539L18.0115 22.7436L17.3306 25.9976L20.2671 26.612ZM23.2831 27.574L26.1412 28.4857L27.0529 25.6275L24.1947 24.7159L23.2831 27.574ZM24.0431 25.1925L21.5551 24.3985L19.731 30.1145L22.219 30.9085L24.0431 25.1925ZM17.7068 26.6412L17.5513 27.3832L23.4238 28.6138L23.5793 27.8718L17.7068 26.6412ZM21.4791 25.1671L17.6556 23.8281L15.6725 29.4909L19.496 30.8299L21.4791 25.1671ZM19.496 27.6495L19.661 27.1775L13.9971 25.1975L13.8321 25.6695L19.496 27.6495ZM15.8373 29.0188L19.1233 30.1698L21.1068 24.5072L17.8208 23.3562L15.8373 29.0188ZM23.0515 27.9529L23.2035 27.2264L17.3306 25.9976L17.1786 26.7241L23.0515 27.9529ZM19.3554 29.4701L22.3714 30.4321L24.1947 24.7159L21.1787 23.7539L19.3554 29.4701ZM20.425 26.6623L20.273 27.1388L25.9892 28.9622L26.1412 28.4857L20.425 26.6623Z" fill="#9A9AA9" mask="url(#path-8-inside-4_185_3959)"/>
<mask id="path-10-inside-5_185_3959" fill="white">
<path d="M19.875 26.0449L17.0645 25.3419L17.1855 24.8569L19.375 25.4039V24.6924L23.811 25.2259L23.7515 25.7229L19.875 25.2564V26.0449Z"/>
</mask>
<path d="M19.875 26.0449L17.0645 25.3419L17.1855 24.8569L19.375 25.4039V24.6924L23.811 25.2259L23.7515 25.7229L19.875 25.2564V26.0449Z" fill="#9A9AA9"/>
<path d="M19.875 26.0449L19.147 28.9552L22.875 29.8877V26.0449H19.875ZM17.0645 25.3419L14.1537 24.6157L13.4279 27.5247L16.3365 28.2522L17.0645 25.3419ZM17.1855 24.8569L17.9126 21.9463L15.0011 21.219L14.2747 24.1307L17.1855 24.8569ZM19.375 25.4039L18.6478 28.3144L22.375 29.2456V25.4039H19.375ZM19.375 24.6924L19.7332 21.7138L16.375 21.31V24.6924H19.375ZM23.811 25.2259L26.7897 25.5825L27.1461 22.6054L24.1692 22.2473L23.811 25.2259ZM23.7515 25.7229L23.393 28.7014L26.3733 29.06L26.7302 26.0795L23.7515 25.7229ZM19.875 25.2564L20.2334 22.2779L16.875 21.8737V25.2564H19.875ZM20.6029 23.1345L17.7924 22.4315L16.3365 28.2522L19.147 28.9552L20.6029 23.1345ZM19.9752 26.0681L20.0962 25.5831L14.2747 24.1307L14.1537 24.6157L19.9752 26.0681ZM16.4583 27.7674L18.6478 28.3144L20.1021 22.4933L17.9126 21.9463L16.4583 27.7674ZM22.375 25.4039V24.6924H16.375V25.4039H22.375ZM19.0167 27.6709L23.4527 28.2044L24.1692 22.2473L19.7332 21.7138L19.0167 27.6709ZM20.8322 24.8693L20.7727 25.3663L26.7302 26.0795L26.7897 25.5825L20.8322 24.8693ZM24.1099 22.7444L20.2334 22.2779L19.5165 28.2349L23.393 28.7014L24.1099 22.7444ZM16.875 25.2564V26.0449H22.875V25.2564H16.875Z" fill="#9A9AA9" mask="url(#path-10-inside-5_185_3959)"/>
</svg>
